<?xml version="1.0" encoding="UTF-8"?>
<svg width="600" height="400" viewBox="0 0 600 400" fill="none" xmlns="http://www.w3.org/2000/svg">
  <rect x="50" y="150" width="150" height="100" rx="10" fill="#6366F1" stroke="white" stroke-width="3"/>
  <text x="125" y="200" font-family="Inter, sans-serif" font-size="16" fill="white" text-anchor="middle">MCP Client</text>
  
  <rect x="400" y="150" width="150" height="100" rx="10" fill="#10B981" stroke="white" stroke-width="3"/>
  <text x="475" y="200" font-family="Inter, sans-serif" font-size="16" fill="white" text-anchor="middle">MCP Server</text>
  
  <rect x="50" y="50" width="150" height="60" rx="10" fill="#3B82F6" stroke="white" stroke-width="3"/>
  <text x="125" y="85" font-family="Inter, sans-serif" font-size="16" fill="white" text-anchor="middle">LLM Application</text>
  
  <rect x="400" y="50" width="150" height="60" rx="10" fill="#F59E0B" stroke="white" stroke-width="3"/>
  <text x="475" y="85" font-family="Inter, sans-serif" font-size="16" fill="white" text-anchor="middle">Data Sources</text>
  
  <rect x="400" y="290" width="150" height="60" rx="10" fill="#EF4444" stroke="white" stroke-width="3"/>
  <text x="475" y="325" font-family="Inter, sans-serif" font-size="16" fill="white" text-anchor="middle">External Tools</text>
  
  <!-- Arrows -->
  <path d="M125 110L125 150" stroke="#3B82F6" stroke-width="3" stroke-dasharray="5 5"/>
  <polygon points="125,150 120,140 130,140" fill="#3B82F6"/>
  
  <path d="M475 110L475 150" stroke="#F59E0B" stroke-width="3" stroke-dasharray="5 5"/>
  <polygon points="475,150 470,140 480,140" fill="#F59E0B"/>
  
  <path d="M475 250L475 290" stroke="#EF4444" stroke-width="3" stroke-dasharray="5 5"/>
  <polygon points="475,290 470,280 480,280" fill="#EF4444"/>
  
  <path d="M200 200L400 200" stroke="white" stroke-width="3"/>
  <polygon points="400,200 390,195 390,205" fill="white"/>
  <polygon points="200,200 210,195 210,205" fill="white"/>
  
  <text x="300" y="190" font-family="Inter, sans-serif" font-size="14" fill="white" text-anchor="middle">JSON-RPC</text>
  <text x="300" y="210" font-family="Inter, sans-serif" font-size="14" fill="white" text-anchor="middle">Communication</text>
</svg>